<svg xmlns="http://www.w3.org/2000/svg" viewBox="0 0 16 16" shape-rendering="crispEdges">
<rect x="5" y="1" width="6" height="14" fill="#5878B8"/>
<rect x="5" y="1" width="6" height="1" fill="#7898D8"/>
<rect x="4" y="15" width="8" height="1" fill="#404858"/>
<rect x="7" y="0" width="1" height="1" fill="#D04830"/>
<rect x="6" y="3" width="1" height="1" fill="#FFE880"/><rect x="9" y="3" width="1" height="1" fill="#FFE880"/>
<rect x="6" y="5" width="1" height="1" fill="#FFE880"/><rect x="9" y="5" width="1" height="1" fill="#B8D0F0"/>
<rect x="6" y="7" width="1" height="1" fill="#B8D0F0"/><rect x="9" y="7" width="1" height="1" fill="#FFE880"/>
<rect x="6" y="9" width="1" height="1" fill="#FFE880"/><rect x="9" y="9" width="1" height="1" fill="#FFE880"/>
<rect x="6" y="11" width="1" height="1" fill="#FFE880"/><rect x="9" y="11" width="1" height="1" fill="#B8D0F0"/>
<rect x="7" y="13" width="2" height="2" fill="#384868"/>
</svg>
