<svg xmlns="http://www.w3.org/2000/svg" viewBox="0 0 16 16" shape-rendering="crispEdges">
<rect x="3" y="3" width="10" height="12" fill="#A8A8B0"/>
<rect x="3" y="3" width="10" height="1" fill="#C8C8D0"/>
<rect x="2" y="15" width="12" height="1" fill="#606068"/>
<rect x="4" y="5" width="2" height="1" fill="#FFE880"/><rect x="7" y="5" width="2" height="1" fill="#FFE880"/><rect x="10" y="5" width="2" height="1" fill="#88B8E0"/>
<rect x="4" y="7" width="2" height="1" fill="#88B8E0"/><rect x="7" y="7" width="2" height="1" fill="#FFE880"/><rect x="10" y="7" width="2" height="1" fill="#FFE880"/>
<rect x="4" y="9" width="2" height="1" fill="#FFE880"/><rect x="7" y="9" width="2" height="1" fill="#FFE880"/><rect x="10" y="9" width="2" height="1" fill="#FFE880"/>
<rect x="4" y="11" width="2" height="1" fill="#FFE880"/><rect x="7" y="11" width="2" height="1" fill="#88B8E0"/><rect x="10" y="11" width="2" height="1" fill="#FFE880"/>
<rect x="7" y="13" width="2" height="2" fill="#485058"/>
</svg>
