<svg xmlns="http://www.w3.org/2000/svg" viewBox="0 0 200 80" shape-rendering="crispEdges">
<!-- タワーマンション1（最も高い） -->
<rect x="8" y="6" width="18" height="74" fill="#8AA4C8"/>
<rect x="8" y="6" width="18" height="2" fill="#A8C0DC"/>
<rect x="12" y="2" width="2" height="4" fill="#D04830"/>
<rect x="11" y="12" width="3" height="3" fill="#FFE880"/><rect x="17" y="12" width="3" height="3" fill="#E8F0F8"/>
<rect x="11" y="20" width="3" height="3" fill="#E8F0F8"/><rect x="17" y="20" width="3" height="3" fill="#FFE880"/>
<rect x="11" y="28" width="3" height="3" fill="#FFE880"/><rect x="17" y="28" width="3" height="3" fill="#FFE880"/>
<rect x="11" y="36" width="3" height="3" fill="#E8F0F8"/><rect x="17" y="36" width="3" height="3" fill="#FFE880"/>
<rect x="11" y="44" width="3" height="3" fill="#FFE880"/><rect x="17" y="44" width="3" height="3" fill="#E8F0F8"/>
<rect x="11" y="52" width="3" height="3" fill="#FFE880"/><rect x="17" y="52" width="3" height="3" fill="#FFE880"/>
<rect x="11" y="60" width="3" height="3" fill="#E8F0F8"/><rect x="17" y="60" width="3" height="3" fill="#FFE880"/>
<rect x="11" y="68" width="3" height="3" fill="#FFE880"/><rect x="17" y="68" width="3" height="3" fill="#FFE880"/>
<!-- ツインタワー風 -->
<rect x="38" y="22" width="14" height="58" fill="#98B0CC"/>
<rect x="38" y="22" width="14" height="2" fill="#B4CCE0"/>
<rect x="41" y="28" width="3" height="3" fill="#FFE880"/><rect x="46" y="28" width="3" height="3" fill="#FFE880"/>
<rect x="41" y="36" width="3" height="3" fill="#E8F0F8"/><rect x="46" y="36" width="3" height="3" fill="#FFE880"/>
<rect x="41" y="44" width="3" height="3" fill="#FFE880"/><rect x="46" y="44" width="3" height="3" fill="#E8F0F8"/>
<rect x="41" y="52" width="3" height="3" fill="#FFE880"/><rect x="46" y="52" width="3" height="3" fill="#FFE880"/>
<rect x="41" y="60" width="3" height="3" fill="#E8F0F8"/><rect x="46" y="60" width="3" height="3" fill="#FFE880"/>
<rect x="41" y="68" width="3" height="3" fill="#FFE880"/><rect x="46" y="68" width="3" height="3" fill="#E8F0F8"/>
<rect x="56" y="30" width="14" height="50" fill="#90A8C4"/>
<rect x="56" y="30" width="14" height="2" fill="#ACC4D8"/>
<rect x="59" y="36" width="3" height="3" fill="#FFE880"/><rect x="64" y="36" width="3" height="3" fill="#E8F0F8"/>
<rect x="59" y="44" width="3" height="3" fill="#E8F0F8"/><rect x="64" y="44" width="3" height="3" fill="#FFE880"/>
<rect x="59" y="52" width="3" height="3" fill="#FFE880"/><rect x="64" y="52" width="3" height="3" fill="#FFE880"/>
<rect x="59" y="60" width="3" height="3" fill="#FFE880"/><rect x="64" y="60" width="3" height="3" fill="#E8F0F8"/>
<rect x="59" y="68" width="3" height="3" fill="#E8F0F8"/><rect x="64" y="68" width="3" height="3" fill="#FFE880"/>
<!-- 段々のオフィスタワー -->
<rect x="92" y="14" width="22" height="66" fill="#A0B8D0"/>
<rect x="96" y="8" width="14" height="6" fill="#A0B8D0"/>
<rect x="96" y="8" width="14" height="2" fill="#BCD4E4"/>
<rect x="95" y="20" width="4" height="3" fill="#FFE880"/><rect x="101" y="20" width="4" height="3" fill="#E8F0F8"/><rect x="107" y="20" width="4" height="3" fill="#FFE880"/>
<rect x="95" y="28" width="4" height="3" fill="#E8F0F8"/><rect x="101" y="28" width="4" height="3" fill="#FFE880"/><rect x="107" y="28" width="4" height="3" fill="#FFE880"/>
<rect x="95" y="36" width="4" height="3" fill="#FFE880"/><rect x="101" y="36" width="4" height="3" fill="#FFE880"/><rect x="107" y="36" width="4" height="3" fill="#E8F0F8"/>
<rect x="95" y="44" width="4" height="3" fill="#FFE880"/><rect x="101" y="44" width="4" height="3" fill="#E8F0F8"/><rect x="107" y="44" width="4" height="3" fill="#FFE880"/>
<rect x="95" y="52" width="4" height="3" fill="#E8F0F8"/><rect x="101" y="52" width="4" height="3" fill="#FFE880"/><rect x="107" y="52" width="4" height="3" fill="#FFE880"/>
<rect x="95" y="60" width="4" height="3" fill="#FFE880"/><rect x="101" y="60" width="4" height="3" fill="#FFE880"/><rect x="107" y="60" width="4" height="3" fill="#E8F0F8"/>
<rect x="95" y="68" width="4" height="3" fill="#FFE880"/><rect x="101" y="68" width="4" height="3" fill="#E8F0F8"/><rect x="107" y="68" width="4" height="3" fill="#FFE880"/>
<!-- 細身のレジデンス -->
<rect x="130" y="26" width="12" height="54" fill="#94ACC8"/>
<rect x="130" y="26" width="12" height="2" fill="#B0C8DC"/>
<rect x="133" y="32" width="2" height="3" fill="#FFE880"/><rect x="137" y="32" width="2" height="3" fill="#FFE880"/>
<rect x="133" y="40" width="2" height="3" fill="#E8F0F8"/><rect x="137" y="40" width="2" height="3" fill="#FFE880"/>
<rect x="133" y="48" width="2" height="3" fill="#FFE880"/><rect x="137" y="48" width="2" height="3" fill="#E8F0F8"/>
<rect x="133" y="56" width="2" height="3" fill="#FFE880"/><rect x="137" y="56" width="2" height="3" fill="#FFE880"/>
<rect x="133" y="64" width="2" height="3" fill="#E8F0F8"/><rect x="137" y="64" width="2" height="3" fill="#FFE880"/>
<rect x="133" y="72" width="2" height="3" fill="#FFE880"/><rect x="137" y="72" width="2" height="3" fill="#FFE880"/>
<!-- 中層タワー -->
<rect x="156" y="38" width="16" height="42" fill="#9CB4CC"/>
<rect x="156" y="38" width="16" height="2" fill="#B8D0E0"/>
<rect x="160" y="44" width="3" height="3" fill="#FFE880"/><rect x="166" y="44" width="3" height="3" fill="#E8F0F8"/>
<rect x="160" y="52" width="3" height="3" fill="#E8F0F8"/><rect x="166" y="52" width="3" height="3" fill="#FFE880"/>
<rect x="160" y="60" width="3" height="3" fill="#FFE880"/><rect x="166" y="60" width="3" height="3" fill="#FFE880"/>
<rect x="160" y="68" width="3" height="3" fill="#FFE880"/><rect x="166" y="68" width="3" height="3" fill="#E8F0F8"/>
<!-- クレーン（建設中の遊び心） -->
<rect x="184" y="34" width="2" height="46" fill="#E89030"/>
<rect x="176" y="34" width="18" height="2" fill="#E89030"/>
<rect x="176" y="36" width="1" height="6" fill="#787068"/>
<rect x="175" y="42" width="3" height="3" fill="#A8A8B0"/>
</svg>
