<svg xmlns="http://www.w3.org/2000/svg" viewBox="0 0 160 48" shape-rendering="crispEdges">
<!-- 商店（赤白オーニング） -->
<rect x="2" y="26" width="20" height="22" fill="#F4E0B0"/>
<rect x="1" y="22" width="22" height="4" fill="#E05848"/>
<rect x="3" y="22" width="3" height="4" fill="#FFF8F0"/><rect x="9" y="22" width="3" height="4" fill="#FFF8F0"/><rect x="15" y="22" width="3" height="4" fill="#FFF8F0"/>
<rect x="4" y="30" width="6" height="6" fill="#90C8E8"/><rect x="14" y="32" width="6" height="16" fill="#8A6848"/>
<!-- 赤屋根の家 -->
<rect x="28" y="30" width="16" height="18" fill="#FCF4E0"/>
<rect x="26" y="26" width="20" height="4" fill="#D85040"/><rect x="30" y="22" width="12" height="4" fill="#D85040"/>
<rect x="31" y="34" width="4" height="4" fill="#90C8E8"/><rect x="38" y="38" width="4" height="10" fill="#8A6848"/>
<!-- 電柱＋電線 -->
<rect x="50" y="10" width="2" height="38" fill="#989088"/>
<rect x="46" y="13" width="10" height="2" fill="#989088"/>
<rect x="52" y="15" width="46" height="1" fill="#787068" opacity="0.6"/>
<!-- 3階建てビル -->
<rect x="58" y="16" width="18" height="32" fill="#A8C4E0"/>
<rect x="58" y="16" width="18" height="2" fill="#C8DCF0"/>
<rect x="61" y="21" width="4" height="4" fill="#FFE880"/><rect x="69" y="21" width="4" height="4" fill="#FFF8F0"/>
<rect x="61" y="29" width="4" height="4" fill="#FFF8F0"/><rect x="69" y="29" width="4" height="4" fill="#FFE880"/>
<rect x="61" y="37" width="4" height="4" fill="#FFE880"/><rect x="69" y="37" width="4" height="4" fill="#FFE880"/>
<!-- 木 -->
<rect x="80" y="28" width="10" height="10" fill="#68B848"/><rect x="82" y="25" width="6" height="3" fill="#88D060"/>
<rect x="84" y="38" width="2" height="10" fill="#8A6848"/>
<!-- 緑屋根の家 -->
<rect x="94" y="30" width="18" height="18" fill="#FCF4E0"/>
<rect x="92" y="26" width="22" height="4" fill="#58A848"/>
<rect x="97" y="34" width="4" height="4" fill="#90C8E8"/><rect x="105" y="34" width="4" height="4" fill="#90C8E8"/>
<rect x="101" y="40" width="4" height="8" fill="#8A6848"/>
<!-- オレンジ屋根の店（看板つき） -->
<rect x="118" y="28" width="16" height="20" fill="#F8E8C8"/>
<rect x="116" y="24" width="20" height="4" fill="#F09030"/>
<rect x="120" y="18" width="12" height="5" fill="#FFF8F0"/><rect x="121" y="19" width="10" height="3" fill="#F0B028"/>
<rect x="121" y="32" width="4" height="4" fill="#90C8E8"/><rect x="128" y="34" width="4" height="14" fill="#8A6848"/>
<!-- 自販機＋木 -->
<rect x="138" y="36" width="6" height="12" fill="#E05848"/><rect x="139" y="38" width="4" height="4" fill="#FFF8F0"/>
<rect x="148" y="28" width="10" height="10" fill="#68B848"/><rect x="150" y="25" width="6" height="3" fill="#88D060"/>
<rect x="152" y="38" width="2" height="10" fill="#8A6848"/>
</svg>
